<?xml version="1.0" encoding="UTF-8"?>
<!DOCTYPE svg PUBLIC "-//W3C//DTD SVG 1.1//EN" "http://www.w3.org/Graphics/SVG/1.1/DTD/svg11.dtd">
<svg xmlns="http://www.w3.org/2000/svg" version="1.1" width="512px" height="512px" style="shape-rendering:geometricPrecision; text-rendering:geometricPrecision; image-rendering:optimizeQuality; fill-rule:evenodd; clip-rule:evenodd" xmlns:xlink="http://www.w3.org/1999/xlink">
<g><path style="opacity:0.936" fill="#000000" d="M 211.5,7.5 C 240.169,7.33336 268.835,7.50002 297.5,8C 340.488,16.3209 364.988,42.1542 371,85.5C 371.667,144.833 371.667,204.167 371,263.5C 364.876,307.292 340.042,333.125 296.5,341C 268.5,341.667 240.5,341.667 212.5,341C 176.356,334.858 152.522,314.358 141,279.5C 139.355,273.608 138.355,267.608 138,261.5C 137.333,203.5 137.333,145.5 138,87.5C 141.104,53.0751 158.27,28.5751 189.5,14C 196.77,11.1877 204.104,9.02103 211.5,7.5 Z M 212.5,25.5 C 240.502,25.3334 268.502,25.5 296.5,26C 328.651,33.1522 347.485,52.9856 353,85.5C 353.977,146.864 353.644,208.198 352,269.5C 344.507,299.327 325.674,317.16 295.5,323C 268.167,323.667 240.833,323.667 213.5,323C 179.906,315.972 160.739,295.472 156,261.5C 155.333,203.5 155.333,145.5 156,87.5C 160.783,53.8895 179.616,33.2228 212.5,25.5 Z"/></g>
<g><path style="opacity:0.918" fill="#000000" d="M 250.5,88.5 C 253.187,88.3359 255.854,88.5026 258.5,89C 260.667,89.8333 262.167,91.3333 263,93.5C 263.667,109.833 263.667,126.167 263,142.5C 259.96,148.368 255.46,149.868 249.5,147C 247.951,145.786 246.785,144.286 246,142.5C 245.333,126.5 245.333,110.5 246,94.5C 246.599,91.7458 248.099,89.7458 250.5,88.5 Z"/></g>
<g><path style="opacity:0.933" fill="#000000" d="M 250.5,374.5 C 256.489,373.065 260.655,375.065 263,380.5C 263.167,412.505 263.667,444.505 264.5,476.5C 276.686,465.813 289.02,455.313 301.5,445C 308.614,443.109 312.947,445.776 314.5,453C 313.885,455.515 312.885,457.848 311.5,460C 294.979,474.098 278.646,488.431 262.5,503C 256.553,507.844 250.886,507.511 245.5,502C 229.351,488.019 213.351,473.852 197.5,459.5C 193.35,454.084 194.017,449.251 199.5,445C 202.5,444.333 205.5,444.333 208.5,445C 220.352,455.686 232.352,466.186 244.5,476.5C 245.333,444.505 245.833,412.505 246,380.5C 246.979,378.032 248.479,376.032 250.5,374.5 Z"/></g>
</svg>
